<mxfile host="app.diagrams.net" modified="2022-07-08T19:04:44.408Z" agent="5.0 (X11; Linux x86_64) AppleWebKit/537.36 (KHTML, like Gecko) Chrome/103.0.0.0 Safari/537.36" etag="3uY7UiiYxzdewwDZqxrU" version="20.0.4" type="github" pages="2">
  <diagram id="VFTiWgo7URCo_Qu8yvoZ" name="Page-1">
    <mxGraphModel dx="1422" dy="769" grid="1" gridSize="10" guides="1" tooltips="1" connect="1" arrows="1" fold="1" page="1" pageScale="1" pageWidth="827" pageHeight="1169" math="0" shadow="0">
      <root>
        <mxCell id="0" />
        <mxCell id="1" parent="0" />
        <mxCell id="cHEU22_8KT48uunRq1mV-1" value="" style="whiteSpace=wrap;html=1;aspect=fixed;" parent="1" vertex="1">
          <mxGeometry x="220" y="455" width="260" height="260" as="geometry" />
        </mxCell>
        <mxCell id="cHEU22_8KT48uunRq1mV-2" value="" style="whiteSpace=wrap;html=1;aspect=fixed;" parent="1" vertex="1">
          <mxGeometry x="840" y="455" width="260" height="260" as="geometry" />
        </mxCell>
        <mxCell id="cHEU22_8KT48uunRq1mV-8" value="" style="edgeStyle=orthogonalEdgeStyle;rounded=0;orthogonalLoop=1;jettySize=auto;html=1;" parent="1" source="cHEU22_8KT48uunRq1mV-5" target="cHEU22_8KT48uunRq1mV-7" edge="1">
          <mxGeometry relative="1" as="geometry" />
        </mxCell>
        <mxCell id="cHEU22_8KT48uunRq1mV-11" value="" style="edgeStyle=orthogonalEdgeStyle;rounded=0;orthogonalLoop=1;jettySize=auto;html=1;" parent="1" source="cHEU22_8KT48uunRq1mV-5" target="cHEU22_8KT48uunRq1mV-10" edge="1">
          <mxGeometry relative="1" as="geometry" />
        </mxCell>
        <mxCell id="cHEU22_8KT48uunRq1mV-5" value="serviceA" style="rounded=0;whiteSpace=wrap;html=1;" parent="1" vertex="1">
          <mxGeometry x="290" y="475" width="120" height="60" as="geometry" />
        </mxCell>
        <mxCell id="cHEU22_8KT48uunRq1mV-13" value="" style="edgeStyle=orthogonalEdgeStyle;rounded=0;orthogonalLoop=1;jettySize=auto;html=1;" parent="1" source="cHEU22_8KT48uunRq1mV-6" target="cHEU22_8KT48uunRq1mV-12" edge="1">
          <mxGeometry relative="1" as="geometry" />
        </mxCell>
        <mxCell id="cHEU22_8KT48uunRq1mV-15" value="" style="edgeStyle=orthogonalEdgeStyle;rounded=0;orthogonalLoop=1;jettySize=auto;html=1;" parent="1" source="cHEU22_8KT48uunRq1mV-6" target="cHEU22_8KT48uunRq1mV-14" edge="1">
          <mxGeometry relative="1" as="geometry" />
        </mxCell>
        <mxCell id="cHEU22_8KT48uunRq1mV-6" value="serviceB" style="rounded=0;whiteSpace=wrap;html=1;" parent="1" vertex="1">
          <mxGeometry x="910" y="475" width="120" height="60" as="geometry" />
        </mxCell>
        <mxCell id="cHEU22_8KT48uunRq1mV-7" value="" style="ellipse;whiteSpace=wrap;html=1;rounded=0;" parent="1" vertex="1">
          <mxGeometry x="230" y="615" width="100" height="50" as="geometry" />
        </mxCell>
        <mxCell id="cHEU22_8KT48uunRq1mV-10" value="" style="ellipse;whiteSpace=wrap;html=1;rounded=0;" parent="1" vertex="1">
          <mxGeometry x="360" y="615" width="110" height="50" as="geometry" />
        </mxCell>
        <mxCell id="cHEU22_8KT48uunRq1mV-12" value="" style="ellipse;whiteSpace=wrap;html=1;rounded=0;" parent="1" vertex="1">
          <mxGeometry x="850" y="610" width="90" height="45" as="geometry" />
        </mxCell>
        <mxCell id="cHEU22_8KT48uunRq1mV-14" value="" style="ellipse;whiteSpace=wrap;html=1;rounded=0;" parent="1" vertex="1">
          <mxGeometry x="980" y="610" width="100" height="50" as="geometry" />
        </mxCell>
        <mxCell id="cHEU22_8KT48uunRq1mV-24" value="" style="edgeStyle=orthogonalEdgeStyle;rounded=0;orthogonalLoop=1;jettySize=auto;html=1;startArrow=blockThin;startFill=1;" parent="1" source="cHEU22_8KT48uunRq1mV-18" target="cHEU22_8KT48uunRq1mV-23" edge="1">
          <mxGeometry relative="1" as="geometry" />
        </mxCell>
        <mxCell id="cHEU22_8KT48uunRq1mV-18" value="Gateway/Service/Load Balancer" style="rounded=1;whiteSpace=wrap;html=1;" parent="1" vertex="1">
          <mxGeometry x="570" y="290" width="190" height="95" as="geometry" />
        </mxCell>
        <mxCell id="cHEU22_8KT48uunRq1mV-22" style="edgeStyle=orthogonalEdgeStyle;rounded=0;orthogonalLoop=1;jettySize=auto;html=1;startArrow=blockThin;startFill=1;" parent="1" source="cHEU22_8KT48uunRq1mV-21" target="cHEU22_8KT48uunRq1mV-18" edge="1">
          <mxGeometry relative="1" as="geometry" />
        </mxCell>
        <mxCell id="cHEU22_8KT48uunRq1mV-21" value="Internet" style="ellipse;shape=cloud;whiteSpace=wrap;html=1;" parent="1" vertex="1">
          <mxGeometry x="390" y="40" width="120" height="80" as="geometry" />
        </mxCell>
        <mxCell id="cHEU22_8KT48uunRq1mV-25" style="edgeStyle=orthogonalEdgeStyle;rounded=0;orthogonalLoop=1;jettySize=auto;html=1;exitX=0;exitY=0.5;exitDx=0;exitDy=0;entryX=1;entryY=0.5;entryDx=0;entryDy=0;startArrow=blockThin;startFill=1;" parent="1" source="cHEU22_8KT48uunRq1mV-23" target="cHEU22_8KT48uunRq1mV-5" edge="1">
          <mxGeometry relative="1" as="geometry" />
        </mxCell>
        <mxCell id="cHEU22_8KT48uunRq1mV-26" style="edgeStyle=orthogonalEdgeStyle;rounded=0;orthogonalLoop=1;jettySize=auto;html=1;exitX=1;exitY=0.5;exitDx=0;exitDy=0;entryX=0;entryY=0.5;entryDx=0;entryDy=0;startArrow=blockThin;startFill=1;" parent="1" source="cHEU22_8KT48uunRq1mV-23" target="cHEU22_8KT48uunRq1mV-6" edge="1">
          <mxGeometry relative="1" as="geometry" />
        </mxCell>
        <mxCell id="cHEU22_8KT48uunRq1mV-23" value="POD istio" style="ellipse;whiteSpace=wrap;html=1;rounded=1;" parent="1" vertex="1">
          <mxGeometry x="605" y="475" width="120" height="60" as="geometry" />
        </mxCell>
        <mxCell id="cHEU22_8KT48uunRq1mV-27" value="Proxy" style="ellipse;whiteSpace=wrap;html=1;rounded=0;" parent="1" vertex="1">
          <mxGeometry x="230" y="600" width="100" height="50" as="geometry" />
        </mxCell>
        <mxCell id="cHEU22_8KT48uunRq1mV-28" value="Proxy" style="ellipse;whiteSpace=wrap;html=1;rounded=0;" parent="1" vertex="1">
          <mxGeometry x="359" y="600" width="110" height="50" as="geometry" />
        </mxCell>
        <mxCell id="cHEU22_8KT48uunRq1mV-29" value="Proxy" style="ellipse;whiteSpace=wrap;html=1;rounded=0;" parent="1" vertex="1">
          <mxGeometry x="850" y="600" width="90" height="45" as="geometry" />
        </mxCell>
        <mxCell id="cHEU22_8KT48uunRq1mV-30" value="Proxy" style="ellipse;whiteSpace=wrap;html=1;rounded=0;" parent="1" vertex="1">
          <mxGeometry x="980" y="595" width="100" height="50" as="geometry" />
        </mxCell>
      </root>
    </mxGraphModel>
  </diagram>
  <diagram id="4QeSIXNChP4-jAiZB5pI" name="Page-2">
    <mxGraphModel dx="1874" dy="803" grid="1" gridSize="10" guides="1" tooltips="1" connect="1" arrows="1" fold="1" page="1" pageScale="1" pageWidth="827" pageHeight="1169" math="0" shadow="0">
      <root>
        <mxCell id="0" />
        <mxCell id="1" parent="0" />
        <mxCell id="ma2naQ9NY3oDZoqZraHG-26" value="Cluster Kubernetes" style="shape=ext;double=1;rounded=1;whiteSpace=wrap;html=1;labelPosition=center;verticalLabelPosition=bottom;align=center;verticalAlign=top;fillColor=#f5f5f5;fontColor=#333333;strokeColor=#666666;" parent="1" vertex="1">
          <mxGeometry x="820" y="240" width="645" height="260" as="geometry" />
        </mxCell>
        <mxCell id="lWz4s2-rkRxQMFU993z5-1" value="" style="edgeStyle=orthogonalEdgeStyle;shape=arrow;rounded=0;orthogonalLoop=1;jettySize=auto;html=1;dashed=1;startArrow=none;startFill=0;" edge="1" parent="1" source="ma2naQ9NY3oDZoqZraHG-9" target="ma2naQ9NY3oDZoqZraHG-26">
          <mxGeometry relative="1" as="geometry" />
        </mxCell>
        <mxCell id="ma2naQ9NY3oDZoqZraHG-9" value="" style="shape=ext;double=1;rounded=0;whiteSpace=wrap;html=1;" parent="1" vertex="1">
          <mxGeometry x="95" y="240" width="650" height="260" as="geometry" />
        </mxCell>
        <mxCell id="ma2naQ9NY3oDZoqZraHG-6" style="edgeStyle=orthogonalEdgeStyle;rounded=0;orthogonalLoop=1;jettySize=auto;html=1;entryX=1;entryY=0.5;entryDx=0;entryDy=0;dashed=1;startArrow=none;startFill=0;" parent="1" source="ma2naQ9NY3oDZoqZraHG-1" target="ma2naQ9NY3oDZoqZraHG-4" edge="1">
          <mxGeometry relative="1" as="geometry" />
        </mxCell>
        <mxCell id="ma2naQ9NY3oDZoqZraHG-8" value="Pipeline" style="edgeStyle=orthogonalEdgeStyle;rounded=0;orthogonalLoop=1;jettySize=auto;html=1;startArrow=none;startFill=0;shape=flexArrow;" parent="1" source="ma2naQ9NY3oDZoqZraHG-1" edge="1">
          <mxGeometry relative="1" as="geometry">
            <mxPoint x="640" y="240" as="targetPoint" />
            <Array as="points">
              <mxPoint x="640" y="370" />
            </Array>
          </mxGeometry>
        </mxCell>
        <mxCell id="ma2naQ9NY3oDZoqZraHG-1" value="Trigger criação&lt;br&gt;cliente" style="rounded=0;whiteSpace=wrap;html=1;fillColor=#d5e8d4;strokeColor=#82b366;" parent="1" vertex="1">
          <mxGeometry x="570" y="50" width="120" height="60" as="geometry" />
        </mxCell>
        <mxCell id="ma2naQ9NY3oDZoqZraHG-5" style="edgeStyle=orthogonalEdgeStyle;rounded=0;orthogonalLoop=1;jettySize=auto;html=1;entryX=0;entryY=0.5;entryDx=0;entryDy=0;dashed=1;" parent="1" source="ma2naQ9NY3oDZoqZraHG-2" target="ma2naQ9NY3oDZoqZraHG-4" edge="1">
          <mxGeometry relative="1" as="geometry" />
        </mxCell>
        <mxCell id="ma2naQ9NY3oDZoqZraHG-2" value="{&lt;br&gt;Nome: demo&lt;br&gt;Número: 000.000&lt;br&gt;}" style="shape=process;whiteSpace=wrap;html=1;backgroundOutline=1;fillColor=#d5e8d4;strokeColor=#82b366;" parent="1" vertex="1">
          <mxGeometry x="120" y="50" width="120" height="60" as="geometry" />
        </mxCell>
        <mxCell id="ma2naQ9NY3oDZoqZraHG-4" value="Topico" style="rhombus;whiteSpace=wrap;html=1;fillColor=#d5e8d4;strokeColor=#82b366;" parent="1" vertex="1">
          <mxGeometry x="380" y="120" width="80" height="80" as="geometry" />
        </mxCell>
        <mxCell id="ma2naQ9NY3oDZoqZraHG-11" value="" style="edgeStyle=orthogonalEdgeStyle;rounded=0;orthogonalLoop=1;jettySize=auto;html=1;startArrow=none;startFill=0;" parent="1" source="ma2naQ9NY3oDZoqZraHG-7" target="ma2naQ9NY3oDZoqZraHG-10" edge="1">
          <mxGeometry relative="1" as="geometry" />
        </mxCell>
        <mxCell id="ma2naQ9NY3oDZoqZraHG-7" value="Pré deploy" style="rounded=0;whiteSpace=wrap;html=1;fillColor=#d5e8d4;strokeColor=#82b366;" parent="1" vertex="1">
          <mxGeometry x="125" y="280" width="120" height="60" as="geometry" />
        </mxCell>
        <mxCell id="ma2naQ9NY3oDZoqZraHG-13" value="" style="edgeStyle=orthogonalEdgeStyle;rounded=0;orthogonalLoop=1;jettySize=auto;html=1;startArrow=none;startFill=0;" parent="1" source="ma2naQ9NY3oDZoqZraHG-10" target="ma2naQ9NY3oDZoqZraHG-12" edge="1">
          <mxGeometry relative="1" as="geometry" />
        </mxCell>
        <mxCell id="ma2naQ9NY3oDZoqZraHG-10" value="Criar namespace" style="rounded=0;whiteSpace=wrap;html=1;fillColor=#d5e8d4;strokeColor=#82b366;" parent="1" vertex="1">
          <mxGeometry x="275" y="280" width="120" height="60" as="geometry" />
        </mxCell>
        <mxCell id="ma2naQ9NY3oDZoqZraHG-15" value="" style="edgeStyle=orthogonalEdgeStyle;rounded=0;orthogonalLoop=1;jettySize=auto;html=1;startArrow=none;startFill=0;" parent="1" source="ma2naQ9NY3oDZoqZraHG-12" target="ma2naQ9NY3oDZoqZraHG-14" edge="1">
          <mxGeometry relative="1" as="geometry" />
        </mxCell>
        <mxCell id="ma2naQ9NY3oDZoqZraHG-12" value="Criar realm&lt;br&gt;keycloak" style="rounded=0;whiteSpace=wrap;html=1;fillColor=#d5e8d4;strokeColor=#82b366;" parent="1" vertex="1">
          <mxGeometry x="435" y="280" width="120" height="60" as="geometry" />
        </mxCell>
        <mxCell id="ma2naQ9NY3oDZoqZraHG-17" value="" style="edgeStyle=orthogonalEdgeStyle;rounded=0;orthogonalLoop=1;jettySize=auto;html=1;startArrow=none;startFill=0;" parent="1" source="ma2naQ9NY3oDZoqZraHG-14" target="ma2naQ9NY3oDZoqZraHG-16" edge="1">
          <mxGeometry relative="1" as="geometry" />
        </mxCell>
        <mxCell id="ma2naQ9NY3oDZoqZraHG-14" value="Criar istio operator" style="rounded=0;whiteSpace=wrap;html=1;" parent="1" vertex="1">
          <mxGeometry x="595" y="280" width="120" height="60" as="geometry" />
        </mxCell>
        <mxCell id="ma2naQ9NY3oDZoqZraHG-19" value="" style="edgeStyle=orthogonalEdgeStyle;rounded=0;orthogonalLoop=1;jettySize=auto;html=1;startArrow=none;startFill=0;" parent="1" source="ma2naQ9NY3oDZoqZraHG-16" target="ma2naQ9NY3oDZoqZraHG-18" edge="1">
          <mxGeometry relative="1" as="geometry" />
        </mxCell>
        <mxCell id="ma2naQ9NY3oDZoqZraHG-16" value="Criar wallet token" style="rounded=0;whiteSpace=wrap;html=1;" parent="1" vertex="1">
          <mxGeometry x="595" y="400" width="120" height="60" as="geometry" />
        </mxCell>
        <mxCell id="ma2naQ9NY3oDZoqZraHG-21" value="" style="edgeStyle=orthogonalEdgeStyle;rounded=0;orthogonalLoop=1;jettySize=auto;html=1;startArrow=none;startFill=0;" parent="1" source="ma2naQ9NY3oDZoqZraHG-18" target="ma2naQ9NY3oDZoqZraHG-20" edge="1">
          <mxGeometry relative="1" as="geometry" />
        </mxCell>
        <mxCell id="ma2naQ9NY3oDZoqZraHG-18" value="Criar os values do cliente" style="rounded=0;whiteSpace=wrap;html=1;fillColor=#d5e8d4;strokeColor=#82b366;" parent="1" vertex="1">
          <mxGeometry x="435" y="400" width="120" height="60" as="geometry" />
        </mxCell>
        <mxCell id="ma2naQ9NY3oDZoqZraHG-23" value="" style="edgeStyle=orthogonalEdgeStyle;rounded=0;orthogonalLoop=1;jettySize=auto;html=1;startArrow=none;startFill=0;" parent="1" source="ma2naQ9NY3oDZoqZraHG-20" target="ma2naQ9NY3oDZoqZraHG-22" edge="1">
          <mxGeometry relative="1" as="geometry" />
        </mxCell>
        <mxCell id="ma2naQ9NY3oDZoqZraHG-20" value="Criar clouddeploy e o skaffold" style="rounded=0;whiteSpace=wrap;html=1;fillColor=#d5e8d4;strokeColor=#82b366;" parent="1" vertex="1">
          <mxGeometry x="275" y="400" width="120" height="60" as="geometry" />
        </mxCell>
        <mxCell id="ma2naQ9NY3oDZoqZraHG-22" value="Criar o espaço do cliente" style="rounded=0;whiteSpace=wrap;html=1;" parent="1" vertex="1">
          <mxGeometry x="125" y="400" width="120" height="60" as="geometry" />
        </mxCell>
        <mxCell id="ma2naQ9NY3oDZoqZraHG-27" value="aries-cloudagent-python" style="shape=cylinder3;whiteSpace=wrap;html=1;boundedLbl=1;backgroundOutline=1;size=15;" parent="1" vertex="1">
          <mxGeometry x="1088" y="290" width="60" height="80" as="geometry" />
        </mxCell>
        <mxCell id="ma2naQ9NY3oDZoqZraHG-28" value="aries-message-router" style="shape=cylinder3;whiteSpace=wrap;html=1;boundedLbl=1;backgroundOutline=1;size=15;" parent="1" vertex="1">
          <mxGeometry x="1188" y="290" width="60" height="80" as="geometry" />
        </mxCell>
        <mxCell id="ma2naQ9NY3oDZoqZraHG-29" value="email-handler" style="shape=cylinder3;whiteSpace=wrap;html=1;boundedLbl=1;backgroundOutline=1;size=15;" parent="1" vertex="1">
          <mxGeometry x="1278" y="290" width="60" height="80" as="geometry" />
        </mxCell>
        <mxCell id="ma2naQ9NY3oDZoqZraHG-30" value="izibiz-aries-api" style="shape=cylinder3;whiteSpace=wrap;html=1;boundedLbl=1;backgroundOutline=1;size=15;" parent="1" vertex="1">
          <mxGeometry x="1368" y="290" width="60" height="80" as="geometry" />
        </mxCell>
        <mxCell id="ma2naQ9NY3oDZoqZraHG-33" value="izibiz-front-app" style="shape=cylinder3;whiteSpace=wrap;html=1;boundedLbl=1;backgroundOutline=1;size=15;" parent="1" vertex="1">
          <mxGeometry x="1088" y="390" width="60" height="80" as="geometry" />
        </mxCell>
        <mxCell id="ma2naQ9NY3oDZoqZraHG-34" value="izibiz-identity-api" style="shape=cylinder3;whiteSpace=wrap;html=1;boundedLbl=1;backgroundOutline=1;size=15;" parent="1" vertex="1">
          <mxGeometry x="1188" y="390" width="60" height="80" as="geometry" />
        </mxCell>
        <mxCell id="ma2naQ9NY3oDZoqZraHG-35" value="izibiz-invitemanager-api" style="shape=cylinder3;whiteSpace=wrap;html=1;boundedLbl=1;backgroundOutline=1;size=15;" parent="1" vertex="1">
          <mxGeometry x="1278" y="390" width="60" height="80" as="geometry" />
        </mxCell>
        <mxCell id="ma2naQ9NY3oDZoqZraHG-36" value="izibiz-proof-api" style="shape=cylinder3;whiteSpace=wrap;html=1;boundedLbl=1;backgroundOutline=1;size=15;" parent="1" vertex="1">
          <mxGeometry x="1368" y="390" width="60" height="80" as="geometry" />
        </mxCell>
        <mxCell id="ma2naQ9NY3oDZoqZraHG-37" value="izibiz - cliente" style="swimlane;startSize=0;labelPosition=center;verticalLabelPosition=top;align=center;verticalAlign=bottom;" parent="1" vertex="1">
          <mxGeometry x="1068" y="280" width="370" height="200" as="geometry" />
        </mxCell>
        <mxCell id="ma2naQ9NY3oDZoqZraHG-40" value="certisign" style="swimlane;startSize=0;labelPosition=center;verticalLabelPosition=top;align=center;verticalAlign=bottom;" parent="1" vertex="1">
          <mxGeometry x="848" y="280" width="200" height="50" as="geometry" />
        </mxCell>
        <mxCell id="ma2naQ9NY3oDZoqZraHG-45" value="" style="shape=cylinder3;whiteSpace=wrap;html=1;boundedLbl=1;backgroundOutline=1;size=15;" parent="ma2naQ9NY3oDZoqZraHG-40" vertex="1">
          <mxGeometry x="25" y="5" width="30" height="40" as="geometry" />
        </mxCell>
        <mxCell id="ma2naQ9NY3oDZoqZraHG-46" value="" style="shape=cylinder3;whiteSpace=wrap;html=1;boundedLbl=1;backgroundOutline=1;size=15;" parent="ma2naQ9NY3oDZoqZraHG-40" vertex="1">
          <mxGeometry x="65" y="5" width="30" height="40" as="geometry" />
        </mxCell>
        <mxCell id="ma2naQ9NY3oDZoqZraHG-47" value="" style="shape=cylinder3;whiteSpace=wrap;html=1;boundedLbl=1;backgroundOutline=1;size=15;" parent="ma2naQ9NY3oDZoqZraHG-40" vertex="1">
          <mxGeometry x="105" y="5" width="30" height="40" as="geometry" />
        </mxCell>
        <mxCell id="ma2naQ9NY3oDZoqZraHG-48" value="" style="shape=cylinder3;whiteSpace=wrap;html=1;boundedLbl=1;backgroundOutline=1;size=15;" parent="ma2naQ9NY3oDZoqZraHG-40" vertex="1">
          <mxGeometry x="145" y="5" width="30" height="40" as="geometry" />
        </mxCell>
        <mxCell id="ma2naQ9NY3oDZoqZraHG-41" value="mobile" style="swimlane;startSize=0;labelPosition=center;verticalLabelPosition=top;align=center;verticalAlign=bottom;" parent="1" vertex="1">
          <mxGeometry x="848" y="357" width="200" height="50" as="geometry" />
        </mxCell>
        <mxCell id="ma2naQ9NY3oDZoqZraHG-49" value="" style="shape=cylinder3;whiteSpace=wrap;html=1;boundedLbl=1;backgroundOutline=1;size=15;" parent="ma2naQ9NY3oDZoqZraHG-41" vertex="1">
          <mxGeometry x="25" y="5" width="30" height="40" as="geometry" />
        </mxCell>
        <mxCell id="ma2naQ9NY3oDZoqZraHG-50" value="" style="shape=cylinder3;whiteSpace=wrap;html=1;boundedLbl=1;backgroundOutline=1;size=15;" parent="ma2naQ9NY3oDZoqZraHG-41" vertex="1">
          <mxGeometry x="65" y="5" width="30" height="40" as="geometry" />
        </mxCell>
        <mxCell id="ma2naQ9NY3oDZoqZraHG-51" value="" style="shape=cylinder3;whiteSpace=wrap;html=1;boundedLbl=1;backgroundOutline=1;size=15;" parent="ma2naQ9NY3oDZoqZraHG-41" vertex="1">
          <mxGeometry x="105" y="5" width="30" height="40" as="geometry" />
        </mxCell>
        <mxCell id="ma2naQ9NY3oDZoqZraHG-52" value="" style="shape=cylinder3;whiteSpace=wrap;html=1;boundedLbl=1;backgroundOutline=1;size=15;" parent="ma2naQ9NY3oDZoqZraHG-41" vertex="1">
          <mxGeometry x="145" y="5" width="30" height="40" as="geometry" />
        </mxCell>
        <mxCell id="ma2naQ9NY3oDZoqZraHG-42" value="sso" style="swimlane;startSize=0;labelPosition=center;verticalLabelPosition=top;align=center;verticalAlign=bottom;" parent="1" vertex="1">
          <mxGeometry x="848" y="430" width="200" height="50" as="geometry" />
        </mxCell>
        <mxCell id="ma2naQ9NY3oDZoqZraHG-53" value="" style="shape=cylinder3;whiteSpace=wrap;html=1;boundedLbl=1;backgroundOutline=1;size=15;" parent="ma2naQ9NY3oDZoqZraHG-42" vertex="1">
          <mxGeometry x="85" y="5" width="30" height="40" as="geometry" />
        </mxCell>
      </root>
    </mxGraphModel>
  </diagram>
</mxfile>
